<?xml version="1.0" encoding="UTF-8"?>
<!-- Svg Vector Icons : http://www.onlinewebfonts.com/icon -->
<!DOCTYPE svg PUBLIC "-//W3C//DTD SVG 1.1//EN" "http://www.w3.org/Graphics/SVG/1.1/DTD/svg11.dtd">
<svg version="1.1" xmlns="http://www.w3.org/2000/svg" xmlns:xlink="http://www.w3.org/1999/xlink" x="0px" y="0px" viewBox="0 0 1000 1000" enable-background="new 0 0 1000 1000" xml:space="preserve">
<metadata> Svg Vector Icons : http://www.onlinewebfonts.com/icon </metadata>
<g><path d="M983.4,766.3l-3.9-6c2.1,2.1-10.4-13.1-10.4-13.1s-11.7-14.5-42.6-41.3c-25.3-22-57-47.3-81.6-64.4c-30-20.8-50.8-34.1-49.5-33.3l-22-11.5c-9.6-5-25.8-5.6-37.1-1.4c-10.3,3.7-19.3,12.2-23.5,19.8c1.8-3.4-7.1,6.9-25.3,40.9c-7.8,14.8-16.9,35.8-27.9,56.4c-14.9,28-53.6,55.7-92.2,32.7c-48.9-29.1-111.8-69.3-176.4-133.8c-74.9-74.5-115.8-131.8-139-186.3c-8.5-19.8-4.6-61.3,26.3-77.1c30.5-15.6,48.1-19.6,67.4-31.8c17.5-11.4,14-7.6,34.4-21.7c0.8-0.6,7.4-6.6,8.3-7.2c0,0,1.5-1.6,2.7-2.9c12.8-12.7,16-29.6,9.6-46.3l-2.7-8.7c0,0-14.7-35.1-37.1-75.2c-11.9-21.3-29.2-47.7-42.7-66.5c-36.4-50.8-68.8-66.5-68.8-66.5s-9.1-5-13.8-7.2c-18.4-8.2-34.8-5.8-50.9,1.4c-34.8,13.6-54.6,32-81.5,55.3C44,121.4,2.8,192,11,253.6C23.9,349.9,139,562.1,289.5,712.2c150.6,150.2,363.4,265,459.9,277.7c64.8,8.6,119.8-26.2,174.4-79.1c19.3-18.6,44.4-49.2,57.3-78.3C988.5,816.3,995.6,784.6,983.4,766.3L983.4,766.3L983.4,766.3z"/></g>
</svg>