<?xml version="1.0" encoding="UTF-8" standalone="no"?>
<svg
   width="128"
   height="128"
   viewBox="0 0 128 128"
   version="1.1"
   id="svg974"
   sodipodi:docname="tel.svg"
   inkscape:version="1.1.1 (3bf5ae0d25, 2021-09-20)"
   xmlns:inkscape="http://www.inkscape.org/namespaces/inkscape"
   xmlns:sodipodi="http://sodipodi.sourceforge.net/DTD/sodipodi-0.dtd"
   xmlns="http://www.w3.org/2000/svg"
   xmlns:svg="http://www.w3.org/2000/svg">
  <sodipodi:namedview
     id="namedview976"
     pagecolor="#ffffff"
     bordercolor="#666666"
     borderopacity="1.0"
     inkscape:pageshadow="2"
     inkscape:pageopacity="0.0"
     inkscape:pagecheckerboard="0"
     showgrid="false"
     inkscape:zoom="1.9859757"
     inkscape:cx="-32.729504"
     inkscape:cy="63.696651"
     inkscape:window-width="1920"
     inkscape:window-height="1017"
     inkscape:window-x="-8"
     inkscape:window-y="-8"
     inkscape:window-maximized="1"
     inkscape:current-layer="svg974" />
  <defs
     id="defs966">
    <linearGradient
       id="tlogo-a"
       x1="64"
       x2="64"
       y1="0"
       y2="127.05025"
       gradientUnits="userSpaceOnUse">
      <stop
         offset="0%"
         stop-color="#2AABEE"
         id="stop961" />
      <stop
         offset="100%"
         stop-color="#229ED9"
         id="stop963" />
    </linearGradient>
  </defs>
  <circle
     cx="64"
     cy="64"
     r="64"
     fill="url(#tlogo-a)"
     fill-rule="nonzero"
     id="circle968"
     style="fill:#6f917c" />
  <g
     id="g1058"
     transform="matrix(0.0814278,0,0,0.0814278,23.287932,23.288451)"
     style="stroke-width:12.2808;fill:#ffffff">
    <path
       d="m 983.4,766.3 -3.9,-6 c 2.1,2.1 -10.4,-13.1 -10.4,-13.1 0,0 -11.7,-14.5 -42.6,-41.3 -25.3,-22 -57,-47.3 -81.6,-64.4 -30,-20.8 -50.8,-34.1 -49.5,-33.3 l -22,-11.5 c -9.6,-5 -25.8,-5.6 -37.1,-1.4 -10.3,3.7 -19.3,12.2 -23.5,19.8 1.8,-3.4 -7.1,6.9 -25.3,40.9 -7.8,14.8 -16.9,35.8 -27.9,56.4 -14.9,28 -53.6,55.7 -92.2,32.7 C 518.5,716 455.6,675.8 391,611.3 316.1,536.8 275.2,479.5 252,425 c -8.5,-19.8 -4.6,-61.3 26.3,-77.1 30.5,-15.6 48.1,-19.6 67.4,-31.8 17.5,-11.4 14,-7.6 34.4,-21.7 0.8,-0.6 7.4,-6.6 8.3,-7.2 0,0 1.5,-1.6 2.7,-2.9 12.8,-12.7 16,-29.6 9.6,-46.3 l -2.7,-8.7 c 0,0 -14.7,-35.1 -37.1,-75.2 C 349,132.8 331.7,106.4 318.2,87.6 281.8,36.8 249.4,21.1 249.4,21.1 c 0,0 -9.1,-5 -13.8,-7.2 -18.4,-8.2 -34.8,-5.8 -50.9,1.4 -34.8,13.6 -54.6,32 -81.5,55.3 C 44,121.4 2.8,192 11,253.6 c 12.9,96.3 128,308.5 278.5,458.6 150.6,150.2 363.4,265 459.9,277.7 64.8,8.6 119.8,-26.2 174.4,-79.1 19.3,-18.6 44.4,-49.2 57.3,-78.3 7.4,-16.2 14.5,-47.9 2.3,-66.2 z"
       id="path1056"
       style="stroke-width:12.2808;fill:#ffffff" />
  </g>
</svg>
