<?xml version="1.0" encoding="UTF-8" standalone="no"?>
<svg
   xmlns:dc="http://purl.org/dc/elements/1.1/"
   xmlns:cc="http://creativecommons.org/ns#"
   xmlns:rdf="http://www.w3.org/1999/02/22-rdf-syntax-ns#"
   xmlns:svg="http://www.w3.org/2000/svg"
   xmlns="http://www.w3.org/2000/svg"
   xmlns:sodipodi="http://sodipodi.sourceforge.net/DTD/sodipodi-0.dtd"
   xmlns:inkscape="http://www.inkscape.org/namespaces/inkscape"
   viewBox="0 0 128 128"
   id="svg2"
   version="1.1"
   inkscape:version="0.91 r13725"
   sodipodi:docname="telephone.svg"
   width="128"
   height="128">
  <metadata
     id="metadata26">
    <rdf:RDF>
      <cc:Work
         rdf:about="">
        <dc:format>image/svg+xml</dc:format>
        <dc:type
           rdf:resource="http://purl.org/dc/dcmitype/StillImage" />
        <dc:title></dc:title>
      </cc:Work>
    </rdf:RDF>
  </metadata>
  <sodipodi:namedview
     pagecolor="#ffffff"
     bordercolor="#666666"
     borderopacity="1"
     objecttolerance="10"
     gridtolerance="10"
     guidetolerance="10"
     inkscape:pageopacity="0"
     inkscape:pageshadow="2"
     inkscape:window-width="1920"
     inkscape:window-height="1027"
     id="namedview24"
     showgrid="false"
     inkscape:zoom="4.6211378"
     inkscape:cx="107.73292"
     inkscape:cy="38.350391"
     inkscape:window-x="-8"
     inkscape:window-y="-8"
     inkscape:window-maximized="1"
     inkscape:current-layer="g8091"
     showguides="false" />
  <defs
     id="defs4">
    <linearGradient
       id="b"
       x1="186.75597"
       x2="86.535004"
       y1="79.092339"
       y2="137.092"
       gradientUnits="userSpaceOnUse"
       gradientTransform="matrix(0.99748125,0,0,0.99748125,0.66756686,-45.942421)">
      <stop
         offset="0"
         stop-color="#57d163"
         id="stop7" />
      <stop
         offset="1"
         stop-color="#23b33a"
         id="stop9" />
    </linearGradient>
    <filter
       id="a"
       width="1.115"
       height="1.114"
       x="-0.057"
       y="-0.057"
       style="color-interpolation-filters:sRGB">
      <feGaussianBlur
         stdDeviation="3.531"
         id="feGaussianBlur12" />
    </filter>
  </defs>
  <g
     id="g8091"
     transform="matrix(1.03467,0,0,1.03467,-26.644771,22.382065)">
    <g
       id="g21569"
       transform="matrix(1,0,0,1.1165317,-0.34871768,-7.7023453)">
      <path
         d="m 135.65095,39.287251 c 4.31682,1.636673 5.78721,0.286879 7.1117,-0.934547 l 3.46881,-3.385184 c 1.19226,-1.192253 2.68209,-3.576759 2.53039,-7.003757 -0.1517,-3.426998 0.14392,-12.371813 -8.65211,-21.1678418 -8.79602,-8.796026 -23.70211,-10.8887888 -25.78902,-11.1902557 -2.08694,-0.301467 -32.187926,-7.4520665 -57.526705,3.55439104 C 35.737031,8.3061782 33.848495,12.563663 30.86689,16.140422 c -2.981608,3.576765 -6.253008,14.902191 -3.567037,20.56588 2.685978,5.663684 6.261761,9.24142 7.455957,9.542887 1.194198,0.301468 2.83087,-0.446362 5.514902,-1.341044 2.684021,-0.894667 15.796868,-5.358333 18.032583,-6.39985 2.235715,-1.041517 3.7236,-1.936191 3.127476,-4.918772 -0.596131,-2.982574 -1.199058,-10.429783 -1.348826,-12.666467 -0.14976,-2.23669 0.742001,-3.427973 3.425057,-4.323624 2.68306,-0.895647 10.328647,-4.764147 23.249909,-5.5042 10.053435,-0.575704 19.493229,1.689186 22.326059,2.433129 2.83281,0.743943 2.86782,2.646102 2.86199,4.43351 -8.9e-4,1.60361 0.30049,3.875309 0.4483,5.814422 0.14783,1.939112 0.59906,2.97966 1.19518,4.766094 0.59613,1.786435 1.93912,2.536212 3.28015,2.982577 1.34105,0.446366 13.65646,5.814422 18.7814,7.761316"
         id="path22"
         inkscape:connector-curvature="0"
         style="fill:#008000;fill-rule:evenodd" />
      <path
         inkscape:connector-curvature="0"
         id="path21559"
         d="M 88.552125,34.67293 A 47.594621,36.216401 0 0 0 40.956182,70.888054 47.594621,36.216401 0 0 0 51.444128,93.551528 l 74.180122,0 A 47.594621,36.216401 0 0 0 136.14618,70.888054 47.594621,36.216401 0 0 0 88.552125,34.67293 Z m -0.996695,4.453035 a 24.992927,19.76428 0 0 1 24.99287,19.764001 24.992927,19.76428 0 0 1 -24.99287,19.764 24.992927,19.76428 0 0 1 -24.992872,-19.764 24.992927,19.76428 0 0 1 24.992872,-19.764001 z"
         style="opacity:1;fill:#008000;fill-opacity:1;stroke:none;stroke-width:0.87235022;stroke-linejoin:bevel;stroke-miterlimit:4;stroke-dasharray:none" />
    </g>
  </g>
</svg>
