<svg xmlns="http://www.w3.org/2000/svg" viewBox="0 0 128 128" width="128" height="128">
	<path style="fill:#665ca7"
	 d="m 95,-152 c 0,-91 17,-147 161,-147 144,0 161,56 161,147 0,91 -17,147 -161,147 l -26,-1 -53,63 c -4,4 -8,1 -8,-3 l 0,-69 c -6,0 -31,-12 -38,-19 -22,-23 -36,-40 -36,-118 z" />
	<g style="fill:#ffffff">
		<path
		   d="m 252.88281,128.00195 a 5.0005,5.0005 0 1 0 0.23438,9.9961 c 54.34974,-1.26373 97.83438,44.41899 93.89648,98.64062 a 5.0005,5.0005 0 1 0 9.97266,0.72266 c 4.35384,-59.94886 -44.013,-110.75658 -104.10352,-109.35938 z M 261.99414,154 a 5.0005,5.0005 0 1 0 0.0117,10 c 33.76477,-0.0371 60.58274,28.03795 59,61.76562 a 5.0005,5.0005 0 1 0 9.98828,0.46876 c 1.84403,-39.2955 -29.66129,-72.27762 -69,-72.23438 z m 6.83594,27.00195 a 5.0009376,5.0009376 0 1 0 0.33984,9.9961 c 14.53858,-0.49327 26.3253,11.29345 25.83203,25.83203 a 5.0009376,5.0009376 0 1 0 9.9961,0.33984 c 0.68464,-20.17927 -15.9887,-36.85261 -36.16797,-36.16797 z"/>
		<path
		   d="m 288,274 q 10,-13 24,-4 l 36,27 q 8,10 -7,28 -15,18 -28,15 -53,-12 -102,-60 -49,-48 -61,-104 0,-20 25,-34 13,-9 22,5 l 25,35 q 6,12 -7,22 c -39,15 51,112 73,70 z"/>
	</g>
</svg>
