<svg xmlns="http://www.w3.org/2000/svg" viewBox="0 0 128 128" width="128" height="128">

   <path style="fill:#23b33a"
       d="M 87.607422,-21.63208 A 61.855461,61.855461 0 0 0 25.751953,40.223389 61.855461,61.855461 0 0 0 37.138672,75.856198 l -5.917969,21.60157 22.095703,-5.79297 A 61.855461,61.855461 0 0 0 87.607422,102.07886 61.855461,61.855461 0 0 0 149.46289,40.223389 61.855461,61.855461 0 0 0 87.607422,-21.63208 Z"
      />
    <path style="fill:#fff"
       d="m 68.772,8.050998 c -1.378,-3.061 -2.828,-3.123 -4.137,-3.176 l -3.524,-0.043 c -1.226,0 -3.218,0.46 -4.902,2.3 -1.684,1.84 -6.435,6.287 -6.435,15.332 0,9.045 6.588,17.785 7.506,19.013 0.918,1.228 12.718,20.381 31.405,27.75 15.529,6.124 18.689,4.906 22.061,4.6 3.372,-0.306 10.877,-4.447 12.408,-8.74 1.531,-4.293 1.532,-7.971 1.073,-8.74 -0.459,-0.769 -1.685,-1.226 -3.525,-2.146 -1.84,-0.92 -10.877,-5.367 -12.562,-5.981 -1.685,-0.614 -2.91,-0.919 -4.137,0.921 -1.227,1.84 -4.746,5.979 -5.819,7.206 -1.073,1.227 -2.144,1.381 -3.984,0.462 -1.84,-0.919 -7.76,-2.861 -14.784,-9.124 -5.465,-4.873 -9.154,-10.891 -10.228,-12.73 -1.074,-1.839 -0.114,-2.835 0.808,-3.751 0.825,-0.824 1.838,-2.147 2.759,-3.22 0.921,-1.073 1.224,-1.84 1.836,-3.065 0.612,-1.225 0.307,-2.301 -0.153,-3.22 -0.46,-0.919 -4.032,-10.011 -5.666,-13.647" />

</svg>